#define calculeta_width 60
#define calculeta_height 96
static unsigned char calculeta_bits[] = {
   0x00, 0x00, 0x00, 0x00, 0x00, 0x00, 0x00, 0x00, 0x00, 0x00, 0x00, 0x00,
   0x00, 0x00, 0x00, 0x00, 0x00, 0x00, 0x00, 0x00, 0x00, 0x00, 0x00, 0x00,
   0x00, 0x00, 0x00, 0x00, 0x00, 0x00, 0x00, 0x00, 0x00, 0x00, 0x00, 0x00,
   0x00, 0x00, 0x00, 0x00, 0x00, 0x10, 0x24, 0xd8, 0x15, 0x8c, 0x01, 0x00,
   0x00, 0x41, 0x08, 0x90, 0x25, 0x80, 0x08, 0x00, 0x00, 0x60, 0xe2, 0xd8,
   0x64, 0x4e, 0x12, 0x00, 0x00, 0x78, 0xc2, 0x9e, 0x64, 0xcc, 0x12, 0x00,
   0x80, 0x78, 0x62, 0xde, 0x35, 0x48, 0x1a, 0x00, 0x00, 0x30, 0xc2, 0x9c,
   0x64, 0xde, 0x10, 0x00, 0x00, 0x40, 0x00, 0x10, 0x04, 0x48, 0x10, 0x00,
   0x00, 0x40, 0x0a, 0x31, 0x8e, 0xd8, 0x12, 0x00, 0x00, 0xfc, 0xff, 0xff,
   0xf7, 0xff, 0x1f, 0x00, 0x00, 0x30, 0x80, 0x18, 0x43, 0x00, 0x02, 0x00,
   0x00, 0x00, 0x00, 0x00, 0x00, 0x00, 0x00, 0x00, 0x00, 0x00, 0x00, 0x00,
   0x00, 0x00, 0x00, 0x00, 0x00, 0x00, 0x00, 0x60, 0x00, 0x00, 0x00, 0x00,
   0x00, 0x00, 0x00, 0x80, 0x00, 0x03, 0x00, 0x00, 0x00, 0x00, 0x00, 0x28,
   0x01, 0x00, 0x00, 0x00, 0x00, 0x80, 0x00, 0xc8, 0x01, 0x00, 0x00, 0x00,
   0x00, 0x40, 0x01, 0xf0, 0x01, 0x10, 0x10, 0x00, 0x00, 0x80, 0x01, 0xf0,
   0x00, 0x22, 0x1c, 0x00, 0x80, 0xc1, 0x01, 0x40, 0x00, 0x6e, 0x08, 0x00,
   0x80, 0x01, 0x00, 0x02, 0x01, 0x20, 0x00, 0x00, 0x00, 0x00, 0x00, 0x02,
   0xa0, 0x10, 0x00, 0x00, 0x00, 0x00, 0x10, 0x40, 0x80, 0x01, 0x00, 0x00,
   0x00, 0x00, 0x28, 0x40, 0x40, 0x01, 0x00, 0x00, 0x00, 0x00, 0x10, 0x00,
   0x00, 0x01, 0x00, 0x00, 0x00, 0x18, 0x00, 0x40, 0xa0, 0x01, 0x00, 0x00,
   0x00, 0x10, 0x80, 0x00, 0xc0, 0x00, 0x00, 0x00, 0x00, 0x3c, 0x00, 0x20,
   0x00, 0x00, 0x06, 0x00, 0x00, 0x18, 0x06, 0xf0, 0x01, 0x00, 0x00, 0x00,
   0x18, 0x00, 0x06, 0x08, 0x01, 0x00, 0x00, 0x00, 0x00, 0x00, 0x00, 0xe4,
   0x03, 0x00, 0x00, 0x00, 0x00, 0x00, 0x10, 0x00, 0x80, 0x10, 0x00, 0x00,
   0x00, 0x83, 0x00, 0x02, 0x00, 0x01, 0x00, 0x00, 0x20, 0xc4, 0x04, 0x02,
   0x04, 0x02, 0x00, 0x00, 0x10, 0xcc, 0x00, 0x00, 0x00, 0x06, 0x00, 0x00,
   0x10, 0x0c, 0x40, 0x00, 0x00, 0x46, 0x00, 0x00, 0x10, 0x0e, 0x00, 0x00,
   0x00, 0xe6, 0x00, 0x00, 0x60, 0x0e, 0xf8, 0xed, 0xff, 0x47, 0x02, 0x00,
   0xc0, 0x07, 0xaa, 0xb7, 0x5a, 0x07, 0x12, 0x00, 0x00, 0x81, 0x33, 0xe8,
   0xc3, 0x17, 0x00, 0x00, 0x00, 0x00, 0x08, 0xb0, 0x00, 0x27, 0x00, 0x00,
   0x00, 0x4e, 0x08, 0xe0, 0x00, 0x63, 0x0c, 0x00, 0x00, 0x6f, 0x08, 0x60,
   0x00, 0x66, 0x2c, 0x00, 0x00, 0x23, 0x02, 0x60, 0x00, 0x66, 0x22, 0x00,
   0x00, 0x43, 0x08, 0xf1, 0x00, 0xe7, 0x42, 0x00, 0x00, 0x0e, 0x08, 0xf0,
   0x00, 0xe7, 0x63, 0x00, 0x00, 0x6f, 0x08, 0xf0, 0x00, 0x37, 0x40, 0x00,
   0x00, 0x6e, 0x1a, 0xdc, 0xc1, 0x27, 0x70, 0x00, 0x00, 0x44, 0xfa, 0xbf,
   0xff, 0x37, 0x20, 0x00, 0x00, 0x80, 0xf3, 0xff, 0xff, 0x1f, 0x08, 0x00,
   0x00, 0x20, 0xfe, 0xff, 0xff, 0x07, 0x00, 0x00, 0x00, 0x38, 0x00, 0x00,
   0x00, 0x86, 0x0a, 0x00, 0x00, 0x71, 0x00, 0x00, 0x00, 0x06, 0x08, 0x00,
   0x00, 0x60, 0x20, 0x00, 0x20, 0x42, 0x08, 0x00, 0x00, 0x60, 0x04, 0x00,
   0x00, 0x02, 0x0c, 0x00, 0x00, 0x42, 0x08, 0x00, 0x82, 0x21, 0x04, 0x00,
   0x00, 0x60, 0xe0, 0xff, 0x01, 0x20, 0x06, 0x00, 0x00, 0x04, 0x00, 0x06,
   0x01, 0x00, 0x03, 0x00, 0xc0, 0x08, 0x01, 0x08, 0x01, 0x0c, 0x01, 0x00,
   0xe0, 0x80, 0xe5, 0x83, 0x7c, 0x8a, 0xc1, 0x00, 0x00, 0x80, 0x42, 0x01,
   0x58, 0xd4, 0x80, 0x01, 0x00, 0xc0, 0x42, 0x01, 0x58, 0x74, 0xc0, 0x01,
   0x00, 0x80, 0xc3, 0x00, 0x58, 0x3c, 0x00, 0x00, 0x00, 0x80, 0x83, 0x61,
   0x58, 0x1c, 0x00, 0x00, 0x00, 0x00, 0x52, 0x51, 0x58, 0x0e, 0x00, 0x00,
   0x00, 0x00, 0x54, 0x81, 0xd8, 0x03, 0x00, 0x00, 0x00, 0x00, 0xd8, 0x00,
   0xd8, 0x00, 0x00, 0x00, 0x00, 0x00, 0xc0, 0x01, 0xdc, 0x00, 0x00, 0x00,
   0x00, 0x00, 0x70, 0xff, 0xff, 0x00, 0x00, 0x00, 0x00, 0x84, 0x00, 0x00,
   0xd0, 0x00, 0x40, 0x00, 0x00, 0x20, 0x81, 0xaa, 0xce, 0xe0, 0x80, 0x00,
   0x00, 0xa0, 0xa1, 0x4b, 0xd9, 0x00, 0x90, 0x01, 0x00, 0xc0, 0xc1, 0x56,
   0xf9, 0x80, 0xe0, 0x01, 0x40, 0x00, 0x90, 0x2b, 0xd7, 0x20, 0xc1, 0x00,
   0x00, 0x00, 0x80, 0xab, 0xda, 0x80, 0x01, 0x00, 0x00, 0x00, 0x70, 0xff,
   0x7d, 0xe0, 0x01, 0x00, 0x00, 0x12, 0xe0, 0xff, 0x3f, 0x80, 0x00, 0x00,
   0x00, 0x23, 0x80, 0xff, 0x2f, 0x00, 0x40, 0x00, 0x00, 0x61, 0x80, 0xff,
   0x2f, 0x00, 0x60, 0x00, 0x00, 0x63, 0xa0, 0xff, 0x2f, 0x80, 0x62, 0x00,
   0x00, 0x7a, 0x78, 0xff, 0x2f, 0x00, 0x06, 0x00, 0x00, 0x3c, 0xa8, 0xfe,
   0xaf, 0x81, 0x06, 0x00, 0x00, 0x00, 0xd4, 0xfe, 0x55, 0x81, 0x07, 0x00,
   0x00, 0x00, 0xfc, 0xff, 0xff, 0x03, 0x00, 0x00, 0x00, 0x00, 0x4b, 0xfd,
   0x8b, 0x07, 0x00, 0x00, 0x40, 0x80, 0xfe, 0xff, 0xff, 0x0f, 0x00, 0x00,
   0x00, 0x80, 0xb5, 0x6d, 0x55, 0x0f, 0x00, 0x00, 0x00, 0x00, 0x57, 0xdb,
   0xff, 0x0f, 0x80, 0x01, 0x00, 0xc0, 0xfd, 0xff, 0xff, 0x0f, 0x80, 0x01,
   0x00, 0x58, 0xff, 0xff, 0xff, 0x0f, 0x00, 0x00, 0x00, 0xf6, 0xfd, 0xff,
   0xff, 0x0f, 0x00, 0x00, 0x40, 0xad, 0x03, 0x00, 0x00, 0x0e, 0x00, 0x00 };
