#define ideogram_width 55
#define ideogram_height 67
static unsigned char ideogram_bits[] = {
   0x00, 0x00, 0xc0, 0x01, 0x00, 0x00, 0x00, 0x00, 0x00, 0xe0, 0x03, 0x00,
   0x00, 0x00, 0x00, 0x00, 0x60, 0x06, 0x00, 0x00, 0x00, 0x00, 0x00, 0x20,
   0x06, 0x00, 0x00, 0x00, 0x00, 0x00, 0x60, 0x06, 0x00, 0x00, 0x00, 0x00,
   0x00, 0xc0, 0x03, 0x80, 0x01, 0x00, 0x00, 0x00, 0xc0, 0x03, 0xc0, 0x07,
   0x00, 0x00, 0x00, 0x60, 0x06, 0x60, 0x04, 0x00, 0x00, 0x00, 0x20, 0x06,
   0x20, 0x0c, 0x00, 0x00, 0x00, 0x60, 0x06, 0x20, 0x0c, 0x00, 0x00, 0x00,
   0x20, 0x06, 0x60, 0x0c, 0x00, 0x00, 0x00, 0x60, 0x06, 0xc0, 0x07, 0x00,
   0x00, 0x00, 0x20, 0x06, 0x00, 0x07, 0x00, 0x00, 0x00, 0x60, 0x06, 0x00,
   0x0e, 0x00, 0x00, 0x00, 0x70, 0x06, 0x00, 0x1c, 0x00, 0x00, 0xf0, 0xff,
   0xff, 0x0f, 0x18, 0x00, 0x00, 0xfc, 0xff, 0xff, 0x1f, 0x30, 0x00, 0x00,
   0x1c, 0x00, 0x00, 0x38, 0x60, 0x00, 0x00, 0x0e, 0x00, 0x00, 0x70, 0xe0,
   0x00, 0x00, 0x07, 0x00, 0x00, 0x60, 0xc0, 0x01, 0x00, 0x03, 0x00, 0x00,
   0xe0, 0x80, 0x01, 0x00, 0xc3, 0xff, 0xff, 0xc3, 0x80, 0x03, 0xe0, 0x63,
   0x00, 0x00, 0xc6, 0x03, 0x07, 0xf0, 0x33, 0x07, 0xf0, 0xcc, 0x0e, 0x06,
   0x18, 0x93, 0x08, 0x58, 0xcd, 0x18, 0x0e, 0x8c, 0x93, 0x10, 0x98, 0xcd,
   0x30, 0x1c, 0x86, 0x93, 0xc0, 0x4b, 0xcd, 0x20, 0x18, 0x82, 0x93, 0xc8,
   0x9b, 0xcc, 0x60, 0x30, 0x03, 0x33, 0xe7, 0x73, 0xc4, 0x40, 0x30, 0x03,
   0x63, 0xf0, 0x0f, 0xc7, 0xc0, 0x7c, 0x1f, 0xc3, 0x3f, 0xfe, 0xc3, 0xf8,
   0x7f, 0x1f, 0x03, 0x70, 0x0e, 0xc0, 0xfc, 0x03, 0x1f, 0x03, 0xf0, 0x0f,
   0xc0, 0x60, 0x00, 0x03, 0x03, 0xf8, 0x0f, 0xc0, 0x40, 0x00, 0x03, 0x03,
   0xf8, 0x0f, 0xc0, 0x40, 0x00, 0x02, 0x03, 0x00, 0x00, 0xc0, 0x60, 0x00,
   0x06, 0x03, 0x00, 0x00, 0xc0, 0x20, 0x00, 0x0c, 0x03, 0x00, 0xf8, 0xc0,
   0x30, 0x00, 0x18, 0x03, 0x00, 0x8c, 0xc1, 0x18, 0x00, 0xf0, 0x03, 0xff,
   0xff, 0xc1, 0x0e, 0x00, 0xe0, 0x83, 0xff, 0x07, 0xc3, 0x03, 0x00, 0x00,
   0x83, 0xff, 0x07, 0xc1, 0x00, 0x00, 0x00, 0x03, 0x00, 0x8c, 0xe1, 0x00,
   0x00, 0x00, 0x07, 0x00, 0xf0, 0x60, 0x00, 0x00, 0x00, 0x06, 0x00, 0x00,
   0x60, 0x00, 0x00, 0x00, 0x0e, 0x00, 0x00, 0x70, 0x00, 0x00, 0x00, 0x1c,
   0x00, 0x00, 0x38, 0x00, 0x00, 0x00, 0xf8, 0xff, 0xff, 0x1f, 0x00, 0x00,
   0x00, 0xf0, 0xff, 0xff, 0x0f, 0x00, 0x00, 0x00, 0x80, 0xff, 0xff, 0x01,
   0x00, 0x00, 0x00, 0x00, 0x01, 0xc0, 0x00, 0x00, 0x00, 0x00, 0x00, 0x01,
   0xc0, 0x00, 0x00, 0x00, 0x00, 0x00, 0xc1, 0xc3, 0x00, 0x00, 0x00, 0x00,
   0x00, 0xf9, 0xcf, 0x00, 0x00, 0x00, 0x00, 0x00, 0x79, 0xdc, 0x00, 0x00,
   0x00, 0x00, 0x00, 0xf9, 0xdf, 0x00, 0x00, 0x00, 0x00, 0x00, 0xf9, 0xdf,
   0x00, 0x00, 0x00, 0x00, 0x00, 0xf9, 0xdf, 0x00, 0x00, 0x00, 0x00, 0x00,
   0xf1, 0xc7, 0x00, 0x00, 0x00, 0x00, 0x00, 0x03, 0xc0, 0x00, 0x00, 0x00,
   0x00, 0x00, 0x03, 0xc0, 0x00, 0x00, 0x00, 0x00, 0x00, 0xa3, 0x4d, 0x00,
   0x00, 0x00, 0x00, 0x00, 0x66, 0x65, 0x00, 0x00, 0x00, 0x00, 0x00, 0x06,
   0x31, 0x00, 0x00, 0x00, 0x00, 0x00, 0x1c, 0x38, 0x00, 0x00, 0x00, 0x00,
   0x00, 0xf8, 0x0f, 0x00, 0x00, 0x00, 0x00, 0x00, 0xe0, 0x07, 0x00, 0x00,
   0x00 };
